<svg version="1.2" xmlns="http://www.w3.org/2000/svg" viewBox="0 0 836 787" width="836" height="787"><defs><linearGradient id="P" gradientUnits="userSpaceOnUse"/><linearGradient id="g1" x1="745.1" y1="55.5" x2="822.2" y2="153.5" href="#P"><stop stop-color="#642f99"/><stop offset=".5" stop-color="#372792"/><stop offset="1" stop-color="#492795"/></linearGradient><linearGradient id="g2" x1="623.1" y1="146.3" x2="720.1" y2="70" href="#P"><stop stop-color="#ffb84e"/><stop offset=".4" stop-color="#ff5376"/><stop offset=".7" stop-color="#e0409e"/><stop offset="1" stop-color="#833ea0"/></linearGradient><linearGradient id="g3" x1="175.9" y1="-35.6" x2="104.9" y2="83.9" href="#P"><stop stop-color="#ee2c1d"/><stop offset=".5" stop-color="#a22024"/><stop offset="1" stop-color="#ee2c1d"/></linearGradient><linearGradient id="g4" x1="547.5" y1="620.3" x2="630.3" y2="723.8" href="#P"><stop stop-color="#ad2224"/><stop offset=".5" stop-color="#6b1728"/><stop offset="1" stop-color="#951d26"/></linearGradient><linearGradient id="g5" x1="625.1" y1="376.2" x2="673.7" y2="393.3" href="#P"><stop stop-color="#a2e6f7"/><stop offset=".5" stop-color="#66bde7"/><stop offset="1" stop-color="#b0e7f9"/></linearGradient><linearGradient id="g6" x1="811" y1="428.2" x2="865.3" y2="578.7" href="#P"><stop stop-color="#47b2e2"/><stop offset=".5" stop-color="#399bd5"/><stop offset="1" stop-color="#47b2e2"/></linearGradient><linearGradient id="g7" x1="15.6" y1="374.5" x2="90.6" y2="394.9" href="#P"><stop stop-color="#ad2224"/><stop offset="1" stop-color="#6b1728"/></linearGradient><linearGradient id="g8" x1="687.7" y1="240.5" x2="636.2" y2="252" href="#P"><stop stop-color="#ad2224"/><stop offset="1" stop-color="#6b1728"/></linearGradient><linearGradient id="g9" x1="56.1" y1="264.9" x2="56.1" y2="162.3" href="#P"><stop offset=".4" stop-color="#fb8b28"/><stop offset="1" stop-color="#ffbd32"/></linearGradient></defs><style>.a{fill:url(#g1)}.b{fill:url(#g2)}.c{fill:none;stroke:#fff;stroke-linejoin:round;stroke-width:5}.d{fill:#fff}.e{fill:url(#g3)}.f{fill:#ef353f}.g{fill:none;stroke:#ef353f;stroke-width:3}.h{fill:#fff;stroke:#ef353f;stroke-width:3}.i{fill:url(#g4)}.j{fill:url(#g5)}.k{fill:#87cdff}.l{fill:url(#g6)}.m{fill:#1ad4ff}.n{fill:url(#g7)}.o{fill:url(#g8)}.p{fill:url(#g9)}.q{fill:#fff650}</style><path class="a" d="m782.5 115.2l-8.7 72.9c-0.3 2.9-1.8 5.3-3.9 7-2.1 1.6-18.9 14.8-18.9 14.8l-61.8-21.3c-5.7-0.7-9.9-5.9-9.2-11.7l-5.4-65.7c0 0 16.2-12.9 18.5-14.6 2-1.4 4.6-2.1 7.3-1.8l72.9 8.7c5.8 0.7 9.9 5.9 9.2 11.7z"/><path class="b" d="m743.7 211.8l-72.9-8.7c-5.8-0.7-9.9-5.9-9.2-11.7l8.7-72.9c0.7-5.8 5.9-9.9 11.7-9.2l72.9 8.7c5.7 0.7 9.8 5.9 9.2 11.7l-8.7 72.9c-0.7 5.7-5.9 9.9-11.7 9.2z"/><path class="c" d="m728.7 198l-40.1-4.7c-8.3-1-14.3-8.6-13.3-16.9l4.8-40.1c1-8.3 8.5-14.3 16.9-13.3l40.1 4.8c8.3 1 14.2 8.6 13.2 16.9l-4.8 40.1c-0.9 8.3-8.5 14.2-16.8 13.2z"/><path class="c" d="m731.1 162.7c-1.2 10.1-10.3 17.4-20.5 16.2-10.1-1.2-17.3-10.4-16.1-20.5 1.2-10.2 10.4-17.4 20.5-16.2 10.1 1.2 17.4 10.4 16.1 20.5z"/><path class="d" d="m741.4 140.5c-0.2 1.8-1.8 3.1-3.6 2.9-1.8-0.2-3.1-1.8-2.9-3.6 0.2-1.8 1.9-3.1 3.7-2.9 1.8 0.2 3 1.8 2.8 3.6z"/><path class="e" d="m150.7 21.1l79.5-20.1c2.9-0.8 5.8-0.3 8.3 1 2.8 1.5 22.5 13.4 22.5 13.4l3.6 73.5c1.5 6.3-2.2 12.6-8.5 14.2l-65.3 32.6c0 0-20.4-12.2-23-13.7-2.6-1.5-4.6-4.1-5.4-7.2l-20.1-79.4c-1.6-6.3 2.2-12.7 8.4-14.3z"/><path class="f" d="m184.9 128.2l-20.1-79.4c-1.6-6.3 2.2-12.7 8.4-14.3l79.5-20.1c6.2-1.6 12.6 2.2 14.2 8.4l20.2 79.5c1.5 6.2-2.3 12.6-8.5 14.2l-79.5 20.2c-6.2 1.6-12.6-2.2-14.2-8.5z"/><path class="d" d="m186.7 59.2l65.9-16.7 12.5 49.3-65.9 16.8z"/><path class="g" d="m199.2 108.6l25.8-36.8 40.1 20"/><path class="h" d="m252.6 42.5l-24.8 35.3c-0.6 0.8-1.6 1.1-2.4 0.7l-38.7-19.3"/><path class="i" d="m587.9 683.2l-8.6 77.7c-0.3 3-1.9 5.7-4.1 7.5-2.3 1.7-20 15.9-20 15.9l-65.9-22.2c-6.1-0.7-10.5-6.2-9.8-12.3l-6.3-69.9c0 0 17-13.8 19.5-15.6 2.1-1.5 4.9-2.3 7.7-2l77.7 8.6c6.1 0.7 10.5 6.2 9.8 12.3z"/><path class="f" d="m547.5 786.3l-77.7-8.6c-6.1-0.7-10.5-6.2-9.8-12.3l8.6-77.7c0.7-6.1 6.2-10.5 12.3-9.8l77.7 8.6c6.1 0.7 10.5 6.2 9.8 12.3l-8.6 77.7c-0.7 6.1-6.2 10.5-12.3 9.8z"/><path class="d" d="m505.2 707l31.9 25.7c1.8 1.5 1.6 4.2-0.4 5.3l-36.1 19.5c-2.3 1.2-5-0.5-4.7-3.1l4.1-45.2c0.3-2.5 3.2-3.8 5.2-2.2z"/><path class="j" d="m655.6 444.1c-1.5 2.5-4.8 4.2-8.5 4.1-3.8-0.1-7-2.1-8.3-4.8-0.4-0.8-1.7-4.7-1.7-4.7 0 0 5.5-5 10.5-4.8 2.8 0.1 5.3 1.2 6.9 2.9q0.1 0 0.1 0c2.7-7.7 8.2-23.3 8.2-23.3l-28.6-3.9c0 0-8.9 25.4-9 25.6-1.2 3.5-4.6 6.1-9.3 6-3.9-0.2-7.2-2.3-8.4-5.1-0.3-0.7-1.7-4.8-1.7-4.8 0 0 5.6-4.6 10.7-4.4 2.6 0.1 4.9 1 6.5 2.5q0.2 0.1 0.4 0.3c4-11.4 12-34.1 12-34.1l34.1 0.5 1.6 4.6c0 0-9.8 27.9-14.6 41.5q-0.3 1.1-0.9 1.9z"/><path class="k" d="m634.2 409.6l-1.6-4.6 30.1 3.3-2.8 4.8z"/><path class="d" d="m653.9 439.5c-1.4 2.5-4.7 4.2-8.5 4.1-5-0.2-8.9-3.5-8.7-7.5 0.1-3.9 4.3-7 9.3-6.8 2.8 0.1 5.3 1.2 6.9 2.9q0 0 0.1 0c2.7-7.7 8.2-23.3 8.2-23.3l-28.6-3.9c0 0-8.9 25.4-9 25.6-1.2 3.5-4.6 6.1-9.3 6-5-0.2-9-3.6-8.9-7.5 0.2-4 4.4-7 9.4-6.8 2.7 0.1 5 1 6.6 2.5q0.2 0.1 0.3 0.3c4-11.4 12-34.1 12-34.1l35.8 5.1c0 0-9.8 27.9-14.6 41.5q-0.4 1.1-1 1.9z"/><path class="l" d="m834.6 515.3l-40.1 85.4c-1.6 3.3-4.4 5.7-7.6 6.9-3.2 1.2-29 10.5-29 10.5l-66.6-51.1c-6.8-3.2-9.7-11.2-6.5-17.9l20-82.3c0 0 24.9-9.2 28.4-10.2 3.1-0.9 6.5-0.8 9.6 0.7l85.4 40.1c6.7 3.2 9.6 11.2 6.4 17.9z"/><path class="m" d="m748.3 617.4l-85.4-40.2c-6.7-3.1-9.6-11.2-6.5-17.9l40.2-85.3c3.1-6.8 11.2-9.7 17.9-6.5l85.3 40.1c6.8 3.2 9.7 11.2 6.5 17.9l-40.1 85.4c-3.2 6.7-11.2 9.6-17.9 6.5z"/><path fill-rule="evenodd" class="d" d="m779.4 540.6l-19.1 40.6c-1.6 3.6-5.9 5.2-9.5 3.5l-37.6-17.7-25.2 2c-0.7 0.1-1.1-0.7-0.7-1.2l6.7-9.8-7.5-3.6c-3.6-1.7-5.2-5.9-3.5-9.5l19.1-40.7c1.7-3.5 6-5.1 9.6-3.4l64.3 30.2c3.6 1.7 5.1 6 3.4 9.6zm-61.7-2.3c1.4-2.9 0.1-6.3-2.7-7.6-2.8-1.3-6.2-0.1-7.6 2.7-1.3 2.9-0.1 6.3 2.8 7.6 2.8 1.3 6.2 0.1 7.5-2.7zm17.9 8.4c1.4-2.8 0.2-6.2-2.7-7.6-2.8-1.3-6.2-0.1-7.5 2.8-1.4 2.8-0.2 6.2 2.7 7.5 2.8 1.4 6.2 0.1 7.5-2.7zm18 8.4c1.3-2.8 0.1-6.2-2.8-7.5-2.8-1.4-6.2-0.1-7.5 2.7-1.3 2.8-0.1 6.2 2.7 7.5 2.8 1.4 6.2 0.2 7.6-2.7z"/><path class="n" d="m84.6 420.1l-12.2 44.9c-0.8 3.2-4.1 5.1-7.3 4.2l-44.9-12.2c-6.9-1.8-12.8-6.8-15.7-14.2-2.3-6.3-3.9-15-3.9-15 0 0 8.5-9 10.8-10.9 8.5-7 19.8-6.8 28-1.1-0.8-9.9 4.7-19.8 15.1-23.6 9.1-3.3 26.8 2.6 26.8 2.6 0 0 5.2 18.5 3.3 25.3z"/><path class="f" d="m81.6 407.8l-12.3 44.9c-0.8 3.2-4.1 5.1-7.3 4.2l-44.9-12.2c-6.8-1.9-12.8-6.8-15.6-14.2-3.5-9.1-0.7-19.7 6.8-25.9 8.5-7 19.8-6.8 28-1.2-0.8-9.8 4.8-19.7 15.1-23.5 9.1-3.3 19.7-0.3 25.8 7.2 5 6.2 6.2 13.9 4.4 20.7z"/><path class="o" d="m642.8 253.4c0 0 12.2-3.4 18.2-0.9 6.9 2.9 10.4 9.8 9.6 16.4 5.7-3.5 13.3-3.3 18.9 1.7 1.5 1.3 7 7.7 7 7.7 0 0-1.3 5.9-3.2 10-2.1 5-6.3 8.1-11 9.2l-30.8 6.9c-2.2 0.5-4.4-0.9-4.9-3.1l-6.9-30.8c-1-4.7 3.1-17.1 3.1-17.1z"/><path class="f" d="m645.8 248.3c4.3-4.9 11.6-6.6 17.7-4 6.9 2.9 10.4 9.7 9.6 16.4 5.6-3.6 13.3-3.4 18.9 1.6 4.9 4.4 6.4 11.8 3.8 17.8-2.1 4.9-6.3 8.1-11 9.1l-30.8 6.9c-2.2 0.5-4.4-0.9-4.9-3.1l-6.9-30.8c-1-4.7 0.1-9.8 3.6-13.9z"/><path fill-rule="evenodd" class="p" d="m82.1 169.3c7.1 6 11.5 13.4 12.7 22.8 0.9 7.2 1.1 14.3 0.8 21.6-0.5 11.9-0.1 40.5-0.1 40.5l-5.7 9.8c-0.4 0.5-0.9 1.1-1.6 0.8-14.2-7.1-28.1-14.7-41.4-23.5-6.2-4.1-12.3-8.5-17.8-13.6-4.9-4.5-8.7-9.6-10.7-16.1-3.1-9.9-2.2-20.3 2-29.1 3.7-7.7 11.6-19.3 11.6-19.3 0 0 38.1-4.3 50.2 6.1zm-8.7 21.6c-4.8-9.5-16.5-13.3-26-8.5-9.3 4.8-13.1 16.4-8.2 25.9 4.7 9.3 16.5 13.2 25.8 8.4 9.4-4.8 13.2-16.3 8.4-25.8z"/><path fill-rule="evenodd" class="q" d="m88.1 158.6c7 6 11.5 13.4 12.7 22.7 0.9 7.2 1 14.4 0.8 21.6-0.7 16.9-2.9 33.7-5.9 50.4-0.2 1.4-0.2 1.4-1.5 0.8-14.3-7.1-28.2-14.8-41.4-23.5-6.3-4.2-12.3-8.6-17.8-13.6-4.9-4.5-8.8-9.7-10.8-16.1-5.8-18.7 2.6-38.7 20.1-47.6 14.3-7.2 31.6-5.2 43.8 5.3zm-8.7 21.6c-4.8-9.5-16.6-13.3-26-8.6-9.4 4.8-13.1 16.5-8.3 26 4.8 9.3 16.5 13.1 25.8 8.4 9.5-4.8 13.3-16.4 8.5-25.8z"/></svg>